<svg width="18" height="12" viewBox="0 0 18 12" fill="none" xmlns="http://www.w3.org/2000/svg">
<path d="M6.75304 10.5242L2.99325 6.8465L17.1249 6.8465C17.6111 6.8465 18 6.46605 18 5.99049C18 5.51493 17.6111 5.13448 17.1249 5.13448L2.99325 5.13448L6.75304 1.4568C6.92158 1.29194 7.01233 1.07001 7.01233 0.854425C7.01233 0.638838 6.92806 0.416909 6.75304 0.252048C6.40947 -0.0840158 5.85847 -0.0840158 5.5149 0.252048L0.257675 5.39445C-0.0858918 5.73052 -0.0858918 6.26948 0.257675 6.60555L5.5149 11.748C5.85847 12.084 6.40947 12.084 6.75304 11.748C7.09661 11.3992 7.09661 10.8602 6.75304 10.5242Z" fill="#232731"/>
</svg>
