<svg id="_1" data-name="1" xmlns="http://www.w3.org/2000/svg" viewBox="0 0 408.55 827.21"><defs><style>.cls-1{isolation:isolate;font-size:12px;fill:#969696;}.cls-1,.cls-7,.cls-9{font-family:BigCityGrotesquePro-Regular, BigCity Grotesque Pro;}.cls-2{letter-spacing:-0.03em;}.cls-3,.cls-4,.cls-5,.cls-6{fill:none;stroke-linecap:round;stroke-linejoin:round;}.cls-3{stroke:#969696;}.cls-3,.cls-4{stroke-width:0.75px;}.cls-4,.cls-5,.cls-6{stroke:#000;}.cls-5{stroke-width:0.27px;}.cls-6{stroke-width:0.25px;}.cls-7{font-size:24px;}.cls-7,.cls-9{fill:#231f20;}.cls-8{letter-spacing:-0.02em;}.cls-9{font-size:18px;}</style></defs><text class="cls-1" transform="translate(195.46 10.3)"><tspan class="cls-2">у</tspan><tspan x="5.58" y="0">лица</tspan></text><line class="cls-3" x1="184.7" y1="4.32" x2="184.7" y2="13.12"/><polyline class="cls-3" points="188.2 7.82 184.7 4.32 181.2 7.82"/><line class="cls-4" x1="30.4" y1="147.21" x2="57.97" y2="147.21"/><line class="cls-4" x1="57.97" y1="139.42" x2="57.97" y2="137.34"/><polyline class="cls-4" points="128.77 147.21 150.43 147.21 150.43 137.34"/><line class="cls-4" x1="128.77" y1="137.34" x2="128.77" y2="139.42"/><line class="cls-4" x1="57.97" y1="137.34" x2="34.86" y2="137.34"/><line class="cls-4" x1="150.43" y1="137.34" x2="128.77" y2="137.34"/><polyline class="cls-4" points="19.47 422.87 14.49 422.87 14.49 767.16"/><polyline class="cls-4" points="14.66 130.84 14.49 130.84 14.49 381.14 20.08 381.14"/><line class="cls-4" x1="20.57" y1="761.08" x2="20.57" y2="423.66"/><line class="cls-4" x1="20.57" y1="380.35" x2="20.57" y2="137.34"/><line class="cls-4" x1="408.18" y1="751.25" x2="408.18" y2="696.16"/><line class="cls-4" x1="408.18" y1="692.2" x2="398.35" y2="692.2"/><polyline class="cls-4" points="408.18 477.76 408.18 477.76 408.18 467.93 398.35 467.93"/><line class="cls-4" x1="398.35" y1="751.25" x2="376.69" y2="751.25"/><line class="cls-4" x1="376.69" y1="758.58" x2="376.69" y2="761.08"/><line class="cls-4" x1="305.85" y1="751.25" x2="252.75" y2="751.25"/><line class="cls-4" x1="252.75" y1="758.58" x2="252.75" y2="761.08"/><line class="cls-4" x1="305.85" y1="761.08" x2="305.85" y2="758.58"/><polyline class="cls-4" points="181.91 751.25 160.26 751.25 160.26 761.08"/><line class="cls-4" x1="181.91" y1="761.08" x2="181.91" y2="758.58"/><line class="cls-4" x1="376.69" y1="761.08" x2="398.35" y2="761.08"/><line class="cls-4" x1="252.75" y1="761.08" x2="305.85" y2="761.08"/><line class="cls-4" x1="160.26" y1="761.08" x2="181.91" y2="761.08"/><line class="cls-4" x1="408.18" y1="767.37" x2="408.18" y2="751.25"/><line class="cls-4" x1="150.43" y1="751.25" x2="128.77" y2="751.25"/><line class="cls-4" x1="128.77" y1="758.58" x2="128.77" y2="761.08"/><line class="cls-4" x1="150.43" y1="761.08" x2="150.43" y2="751.25"/><line class="cls-4" x1="57.97" y1="751.25" x2="30.4" y2="751.25"/><line class="cls-4" x1="30.4" y1="761.08" x2="30.4" y2="761.08"/><line class="cls-4" x1="57.97" y1="761.08" x2="57.97" y2="758.58"/><line class="cls-4" x1="128.77" y1="761.08" x2="150.43" y2="761.08"/><line class="cls-4" x1="30.4" y1="761.08" x2="57.97" y2="761.08"/><line class="cls-4" x1="160.26" y1="147.21" x2="181.91" y2="147.21"/><line class="cls-4" x1="181.91" y1="139.42" x2="181.91" y2="137.34"/><line class="cls-4" x1="160.26" y1="137.34" x2="160.26" y2="147.21"/><polyline class="cls-4" points="252.75 147.21 305.85 147.21 305.85 140.05"/><line class="cls-4" x1="282.95" y1="137.34" x2="275.87" y2="137.34"/><line class="cls-4" x1="252.75" y1="137.34" x2="252.75" y2="139.42"/><polyline class="cls-4" points="376.69 140.05 376.69 147.21 398.35 147.21"/><line class="cls-4" x1="181.91" y1="137.34" x2="160.26" y2="137.34"/><line class="cls-4" x1="305.85" y1="137.34" x2="282.95" y2="137.34"/><line class="cls-4" x1="275.87" y1="137.34" x2="252.75" y2="137.34"/><line class="cls-4" x1="398.35" y1="137.34" x2="376.69" y2="137.34"/><line class="cls-4" x1="408.18" y1="147.21" x2="408.18" y2="147.21"/><line class="cls-4" x1="408.18" y1="137.34" x2="408.18" y2="137.34"/><line class="cls-5" x1="408.18" y1="395.09" x2="408.18" y2="395.09"/><line class="cls-4" x1="398.35" y1="395.09" x2="398.35" y2="467.93"/><line class="cls-4" x1="408.18" y1="395.09" x2="408.18" y2="467.93"/><line class="cls-5" x1="408.18" y1="286.69" x2="408.18" y2="286.69"/><line class="cls-4" x1="408.18" y1="287.48" x2="408.18" y2="287.48"/><line class="cls-4" x1="370.03" y1="573.17" x2="398.35" y2="573.17"/><line class="cls-4" x1="370.03" y1="553.89" x2="370.03" y2="573.17"/><line class="cls-4" x1="398.35" y1="558.6" x2="398.35" y2="558.6"/><line class="cls-4" x1="398.35" y1="553.89" x2="370.03" y2="553.89"/><line class="cls-5" x1="398.35" y1="208.18" x2="397.56" y2="208.18"/><line class="cls-5" x1="280.28" y1="148" x2="280.28" y2="147.21"/><polyline class="cls-5" points="306.06 140.05 306.06 147.21 305.85 147.21"/><line class="cls-5" x1="284.24" y1="147.21" x2="284.24" y2="148"/><line class="cls-5" x1="397.56" y1="204.27" x2="398.35" y2="204.27"/><line class="cls-5" x1="406.01" y1="51.8" x2="276.91" y2="51.8"/><line class="cls-5" x1="276.91" y1="38.01" x2="276.91" y2="80.95"/><line class="cls-5" x1="276.91" y1="82.45" x2="276.91" y2="124.22"/><line class="cls-5" x1="276.91" y1="125.72" x2="276.91" y2="126.93"/><line class="cls-5" x1="406.01" y1="130.84" x2="406.01" y2="51.8"/><line class="cls-4" x1="398.35" y1="294.56" x2="398.35" y2="294.56"/><line class="cls-4" x1="398.35" y1="289.85" x2="370.03" y2="289.85"/><polyline class="cls-4" points="370.03 309.13 398.35 309.13 398.35 304.39"/><line class="cls-4" x1="370.03" y1="289.85" x2="370.03" y2="309.13"/><line class="cls-4" x1="14.66" y1="131.47" x2="19.32" y2="131.47"/><line class="cls-4" x1="14.66" y1="131.26" x2="19.32" y2="131.26"/><line class="cls-5" x1="150.43" y1="138.72" x2="151.76" y2="137.34"/><line class="cls-5" x1="150.43" y1="147.67" x2="160.26" y2="137.84"/><line class="cls-5" x1="150.43" y1="156.67" x2="160.26" y2="146.8"/><line class="cls-5" x1="150.43" y1="165.62" x2="160.26" y2="155.79"/><line class="cls-5" x1="150.43" y1="174.62" x2="160.26" y2="164.74"/><line class="cls-5" x1="150.43" y1="183.57" x2="160.26" y2="173.74"/><line class="cls-5" x1="150.43" y1="192.56" x2="160.26" y2="182.74"/><line class="cls-5" x1="150.43" y1="201.52" x2="160.26" y2="191.69"/><line class="cls-5" x1="150.43" y1="210.51" x2="160.26" y2="200.69"/><line class="cls-5" x1="150.43" y1="219.47" x2="160.26" y2="209.64"/><line class="cls-5" x1="150.43" y1="228.46" x2="160.26" y2="218.64"/><line class="cls-5" x1="156.05" y1="231.8" x2="160.26" y2="227.59"/><line class="cls-5" x1="150.93" y1="142.71" x2="156.26" y2="137.34"/><line class="cls-5" x1="150.43" y1="152.17" x2="153.18" y2="149.42"/><line class="cls-5" x1="154.3" y1="148.29" x2="154.38" y2="148.21"/><line class="cls-5" x1="155.43" y1="147.17" x2="160.26" y2="142.34"/><line class="cls-5" x1="150.93" y1="160.66" x2="151.01" y2="160.54"/><line class="cls-5" x1="152.05" y1="159.54" x2="157.67" y2="153.92"/><line class="cls-5" x1="158.76" y1="152.79" x2="158.88" y2="152.71"/><line class="cls-5" x1="159.88" y1="151.67" x2="160.26" y2="151.29"/><line class="cls-5" x1="150.43" y1="170.12" x2="154.3" y2="166.24"/><line class="cls-5" x1="155.43" y1="165.12" x2="155.51" y2="165.04"/><line class="cls-5" x1="156.55" y1="164.04" x2="160.26" y2="160.29"/><line class="cls-5" x1="150.43" y1="179.07" x2="150.93" y2="178.61"/><line class="cls-5" x1="152.05" y1="177.49" x2="152.13" y2="177.41"/><line class="cls-5" x1="153.18" y1="176.36" x2="158.76" y2="170.74"/><line class="cls-5" x1="159.88" y1="169.62" x2="160.01" y2="169.53"/><line class="cls-5" x1="150.43" y1="188.07" x2="155.43" y2="183.11"/><line class="cls-5" x1="156.55" y1="181.99" x2="156.63" y2="181.86"/><line class="cls-5" x1="157.67" y1="180.86" x2="160.26" y2="178.24"/><line class="cls-5" x1="150.43" y1="197.06" x2="152.05" y2="195.44"/><line class="cls-5" x1="153.18" y1="194.31" x2="153.26" y2="194.23"/><line class="cls-5" x1="154.3" y1="193.19" x2="159.88" y2="187.57"/><line class="cls-5" x1="150.93" y1="205.52" x2="156.55" y2="199.94"/><line class="cls-5" x1="157.67" y1="198.81" x2="157.76" y2="198.69"/><line class="cls-5" x1="158.76" y1="197.69" x2="160.26" y2="196.19"/><line class="cls-5" x1="150.43" y1="215.01" x2="153.18" y2="212.26"/><line class="cls-5" x1="154.3" y1="211.14" x2="154.38" y2="211.06"/><line class="cls-5" x1="155.43" y1="210.01" x2="160.26" y2="205.14"/><line class="cls-5" x1="150.93" y1="223.47" x2="151.01" y2="223.38"/><line class="cls-5" x1="152.05" y1="222.34" x2="157.67" y2="216.76"/><line class="cls-5" x1="158.76" y1="215.64" x2="158.88" y2="215.55"/><line class="cls-5" x1="159.88" y1="214.51" x2="160.26" y2="214.14"/><line class="cls-5" x1="151.59" y1="231.8" x2="154.3" y2="229.09"/><line class="cls-5" x1="155.43" y1="227.96" x2="155.51" y2="227.88"/><line class="cls-5" x1="156.55" y1="226.84" x2="160.26" y2="223.09"/><polyline class="cls-4" points="160.26 231.8 160.26 137.34 150.43 137.34 150.43 231.8 160.26 231.8"/><line class="cls-5" x1="150.43" y1="668.29" x2="152.09" y2="666.63"/><line class="cls-5" x1="150.43" y1="677.25" x2="160.26" y2="667.42"/><line class="cls-5" x1="150.43" y1="686.24" x2="160.26" y2="676.41"/><line class="cls-5" x1="150.43" y1="695.2" x2="160.26" y2="685.37"/><line class="cls-5" x1="150.43" y1="704.19" x2="160.26" y2="694.36"/><line class="cls-5" x1="150.43" y1="713.15" x2="160.26" y2="703.32"/><line class="cls-5" x1="150.43" y1="722.14" x2="160.26" y2="712.31"/><line class="cls-5" x1="150.43" y1="731.14" x2="160.26" y2="721.27"/><line class="cls-5" x1="150.43" y1="740.09" x2="160.26" y2="730.26"/><line class="cls-5" x1="150.43" y1="749.09" x2="160.26" y2="739.22"/><line class="cls-5" x1="150.43" y1="758.04" x2="160.26" y2="748.21"/><line class="cls-5" x1="156.38" y1="761.08" x2="160.26" y2="757.17"/><line class="cls-5" x1="150.43" y1="672.79" x2="154.3" y2="668.92"/><line class="cls-5" x1="155.43" y1="667.79" x2="155.51" y2="667.71"/><line class="cls-5" x1="156.55" y1="666.67" x2="156.59" y2="666.63"/><line class="cls-5" x1="150.43" y1="681.75" x2="150.93" y2="681.25"/><line class="cls-5" x1="152.05" y1="680.12" x2="152.13" y2="680.04"/><line class="cls-5" x1="153.18" y1="679" x2="158.76" y2="673.42"/><line class="cls-5" x1="159.88" y1="672.29" x2="160.01" y2="672.21"/><line class="cls-5" x1="150.43" y1="690.74" x2="155.43" y2="685.74"/><line class="cls-5" x1="156.55" y1="684.62" x2="156.63" y2="684.54"/><line class="cls-5" x1="157.67" y1="683.49" x2="160.26" y2="680.87"/><line class="cls-5" x1="150.43" y1="699.69" x2="152.05" y2="698.07"/><line class="cls-5" x1="153.18" y1="696.99" x2="153.26" y2="696.86"/><line class="cls-5" x1="154.3" y1="695.86" x2="159.88" y2="690.24"/><line class="cls-5" x1="150.93" y1="708.19" x2="156.55" y2="702.57"/><line class="cls-5" x1="157.67" y1="701.44" x2="157.76" y2="701.36"/><line class="cls-5" x1="158.76" y1="700.32" x2="160.26" y2="698.82"/><line class="cls-5" x1="150.43" y1="717.64" x2="153.18" y2="714.94"/><line class="cls-5" x1="154.3" y1="713.81" x2="154.38" y2="713.69"/><line class="cls-5" x1="155.43" y1="712.69" x2="160.26" y2="707.82"/><line class="cls-5" x1="150.93" y1="726.14" x2="151.01" y2="726.06"/><line class="cls-5" x1="152.05" y1="725.02" x2="157.67" y2="719.39"/><line class="cls-5" x1="158.76" y1="718.27" x2="158.88" y2="718.19"/><line class="cls-5" x1="159.88" y1="717.14" x2="160.26" y2="716.81"/><line class="cls-5" x1="150.43" y1="735.59" x2="154.3" y2="731.76"/><line class="cls-5" x1="155.43" y1="730.64" x2="155.51" y2="730.56"/><line class="cls-5" x1="156.55" y1="729.51" x2="160.26" y2="725.77"/><line class="cls-5" x1="150.43" y1="744.59" x2="150.93" y2="744.09"/><line class="cls-5" x1="152.05" y1="742.97" x2="152.13" y2="742.88"/><line class="cls-5" x1="153.18" y1="741.84" x2="158.76" y2="736.22"/><line class="cls-5" x1="159.88" y1="735.14" x2="160.01" y2="735.01"/><line class="cls-5" x1="150.43" y1="753.54" x2="155.43" y2="748.59"/><line class="cls-5" x1="156.55" y1="747.46" x2="156.63" y2="747.38"/><line class="cls-5" x1="157.67" y1="746.34" x2="160.26" y2="743.72"/><line class="cls-5" x1="151.89" y1="761.08" x2="152.05" y2="760.92"/><line class="cls-5" x1="153.18" y1="759.79" x2="153.26" y2="759.71"/><line class="cls-5" x1="154.3" y1="758.67" x2="159.88" y2="753.09"/><polyline class="cls-4" points="160.26 761.08 160.26 666.63 150.43 666.63 150.43 761.08 160.26 761.08"/><line class="cls-5" x1="160.26" y1="434.03" x2="167.54" y2="426.79"/><line class="cls-5" x1="166.67" y1="436.61" x2="176.5" y2="426.79"/><line class="cls-5" x1="175.62" y1="436.61" x2="185.49" y2="426.79"/><line class="cls-5" x1="184.62" y1="436.61" x2="194.45" y2="426.79"/><line class="cls-5" x1="193.61" y1="436.61" x2="203.44" y2="426.79"/><line class="cls-5" x1="202.57" y1="436.61" x2="212.4" y2="426.79"/><line class="cls-5" x1="211.56" y1="436.61" x2="221.39" y2="426.79"/><line class="cls-5" x1="220.52" y1="436.61" x2="230.35" y2="426.79"/><line class="cls-5" x1="229.51" y1="436.61" x2="239.34" y2="426.79"/><line class="cls-5" x1="238.47" y1="436.61" x2="248.3" y2="426.79"/><line class="cls-5" x1="247.46" y1="436.61" x2="257.29" y2="426.79"/><line class="cls-5" x1="256.42" y1="436.61" x2="266.25" y2="426.79"/><line class="cls-5" x1="265.41" y1="436.61" x2="275.24" y2="426.79"/><line class="cls-5" x1="274.37" y1="436.61" x2="284.2" y2="426.79"/><line class="cls-5" x1="283.36" y1="436.61" x2="293.19" y2="426.79"/><line class="cls-5" x1="292.32" y1="436.61" x2="302.19" y2="426.79"/><line class="cls-5" x1="301.31" y1="436.61" x2="311.14" y2="426.79"/><line class="cls-5" x1="310.27" y1="436.61" x2="320.14" y2="426.79"/><line class="cls-5" x1="319.26" y1="436.61" x2="329.09" y2="426.79"/><line class="cls-5" x1="328.22" y1="436.61" x2="338.09" y2="426.79"/><line class="cls-5" x1="337.21" y1="436.61" x2="341.5" y2="432.37"/><line class="cls-5" x1="160.26" y1="429.58" x2="163.05" y2="426.79"/><line class="cls-5" x1="162.17" y1="436.61" x2="167.75" y2="431.07"/><line class="cls-5" x1="168.88" y1="429.95" x2="168.96" y2="429.83"/><line class="cls-5" x1="170" y1="428.83" x2="172" y2="426.79"/><line class="cls-5" x1="171.17" y1="436.61" x2="172.25" y2="435.53"/><line class="cls-5" x1="173.37" y1="434.41" x2="173.46" y2="434.32"/><line class="cls-5" x1="174.5" y1="433.28" x2="180.08" y2="427.7"/><line class="cls-5" x1="180.12" y1="436.61" x2="184.58" y2="432.16"/><line class="cls-5" x1="185.7" y1="431.07" x2="185.79" y2="430.95"/><line class="cls-5" x1="186.83" y1="429.95" x2="189.95" y2="426.79"/><line class="cls-5" x1="190.2" y1="435.53" x2="190.28" y2="435.45"/><line class="cls-5" x1="191.32" y1="434.41" x2="196.9" y2="428.83"/><line class="cls-5" x1="198.03" y1="427.7" x2="198.15" y2="427.58"/><line class="cls-5" x1="198.07" y1="436.61" x2="201.4" y2="433.28"/><line class="cls-5" x1="202.53" y1="432.16" x2="202.61" y2="432.07"/><line class="cls-5" x1="203.65" y1="431.07" x2="207.94" y2="426.79"/><line class="cls-5" x1="207.07" y1="436.61" x2="207.11" y2="436.57"/><line class="cls-5" x1="208.15" y1="435.53" x2="213.77" y2="429.95"/><line class="cls-5" x1="214.85" y1="428.83" x2="214.98" y2="428.7"/><line class="cls-5" x1="215.98" y1="427.7" x2="216.9" y2="426.79"/><line class="cls-5" x1="216.02" y1="436.61" x2="218.23" y2="434.41"/><line class="cls-5" x1="219.35" y1="433.28" x2="219.44" y2="433.2"/><line class="cls-5" x1="220.48" y1="432.16" x2="225.89" y2="426.79"/><line class="cls-5" x1="225.02" y1="436.61" x2="230.6" y2="431.07"/><line class="cls-5" x1="231.72" y1="429.95" x2="231.8" y2="429.83"/><line class="cls-5" x1="232.85" y1="428.83" x2="234.84" y2="426.79"/><line class="cls-5" x1="233.97" y1="436.61" x2="235.05" y2="435.53"/><line class="cls-5" x1="236.18" y1="434.41" x2="236.3" y2="434.32"/><line class="cls-5" x1="237.3" y1="433.28" x2="242.92" y2="427.7"/><line class="cls-5" x1="242.97" y1="436.61" x2="247.42" y2="432.16"/><line class="cls-5" x1="248.55" y1="431.07" x2="248.63" y2="430.95"/><line class="cls-5" x1="249.67" y1="429.95" x2="252.79" y2="426.79"/><line class="cls-5" x1="253" y1="435.53" x2="253.13" y2="435.45"/><line class="cls-5" x1="254.13" y1="434.41" x2="259.75" y2="428.83"/><line class="cls-5" x1="260.87" y1="427.7" x2="260.96" y2="427.58"/><line class="cls-5" x1="260.92" y1="436.61" x2="264.25" y2="433.28"/><line class="cls-5" x1="265.37" y1="432.16" x2="265.46" y2="432.07"/><line class="cls-5" x1="266.5" y1="431.07" x2="270.74" y2="426.79"/><line class="cls-5" x1="269.91" y1="436.61" x2="269.95" y2="436.57"/><line class="cls-5" x1="270.99" y1="435.53" x2="276.57" y2="429.95"/><line class="cls-5" x1="277.7" y1="428.83" x2="277.78" y2="428.7"/><line class="cls-5" x1="278.82" y1="427.7" x2="279.74" y2="426.79"/><line class="cls-5" x1="278.87" y1="436.61" x2="281.07" y2="434.41"/><line class="cls-5" x1="282.2" y1="433.28" x2="282.28" y2="433.2"/><line class="cls-5" x1="283.32" y1="432.16" x2="288.69" y2="426.79"/><line class="cls-5" x1="287.86" y1="436.61" x2="293.4" y2="431.07"/><line class="cls-5" x1="294.52" y1="429.95" x2="294.65" y2="429.83"/><line class="cls-5" x1="295.65" y1="428.83" x2="297.69" y2="426.79"/><line class="cls-5" x1="296.82" y1="436.61" x2="297.9" y2="435.53"/><line class="cls-5" x1="299.02" y1="434.41" x2="299.11" y2="434.32"/><line class="cls-5" x1="300.15" y1="433.28" x2="305.77" y2="427.7"/><line class="cls-5" x1="305.81" y1="436.61" x2="310.23" y2="432.16"/><line class="cls-5" x1="311.35" y1="431.07" x2="311.47" y2="430.95"/><line class="cls-5" x1="312.47" y1="429.95" x2="315.64" y2="426.79"/><line class="cls-5" x1="315.85" y1="435.53" x2="315.93" y2="435.45"/><line class="cls-5" x1="316.97" y1="434.41" x2="322.59" y2="428.83"/><line class="cls-5" x1="323.72" y1="427.7" x2="323.8" y2="427.58"/><line class="cls-5" x1="323.76" y1="436.61" x2="327.09" y2="433.28"/><line class="cls-5" x1="328.22" y1="432.16" x2="328.3" y2="432.07"/><line class="cls-5" x1="329.3" y1="431.07" x2="333.59" y2="426.79"/><line class="cls-5" x1="332.71" y1="436.61" x2="332.8" y2="436.57"/><line class="cls-5" x1="333.8" y1="435.53" x2="339.42" y2="429.95"/><line class="cls-5" x1="340.54" y1="428.83" x2="340.63" y2="428.7"/><polyline class="cls-4" points="341.5 436.61 341.5 426.79 277.16 426.79"/><polyline class="cls-4" points="253.54 426.79 160.26 426.79 160.26 436.61 253.54 436.61"/><line class="cls-4" x1="277.16" y1="436.61" x2="341.5" y2="436.61"/><line class="cls-5" x1="150.43" y1="354.11" x2="153.34" y2="351.24"/><line class="cls-5" x1="150.43" y1="363.11" x2="160.26" y2="353.28"/><line class="cls-5" x1="150.43" y1="372.06" x2="160.26" y2="362.23"/><line class="cls-5" x1="150.43" y1="381.06" x2="160.26" y2="371.23"/><line class="cls-5" x1="150.43" y1="390.01" x2="160.26" y2="380.18"/><line class="cls-5" x1="150.43" y1="399.01" x2="160.26" y2="389.18"/><line class="cls-5" x1="150.43" y1="407.96" x2="160.26" y2="398.13"/><line class="cls-5" x1="150.43" y1="416.96" x2="160.26" y2="407.13"/><line class="cls-5" x1="150.43" y1="425.95" x2="160.26" y2="416.08"/><line class="cls-5" x1="150.43" y1="434.91" x2="160.26" y2="425.08"/><line class="cls-5" x1="150.43" y1="443.9" x2="160.26" y2="434.03"/><line class="cls-5" x1="150.43" y1="452.86" x2="160.26" y2="443.03"/><line class="cls-5" x1="150.43" y1="461.85" x2="160.26" y2="451.98"/><line class="cls-5" x1="150.43" y1="470.81" x2="160.26" y2="460.98"/><line class="cls-5" x1="150.43" y1="479.8" x2="160.26" y2="469.93"/><line class="cls-5" x1="150.43" y1="488.76" x2="160.26" y2="478.93"/><line class="cls-5" x1="150.43" y1="497.75" x2="160.26" y2="487.92"/><line class="cls-5" x1="150.43" y1="506.7" x2="160.26" y2="496.88"/><line class="cls-5" x1="154.34" y1="511.79" x2="160.26" y2="505.87"/><line class="cls-5" x1="150.43" y1="358.61" x2="154.3" y2="354.78"/><line class="cls-5" x1="155.43" y1="353.65" x2="155.51" y2="353.53"/><line class="cls-5" x1="156.55" y1="352.53" x2="157.8" y2="351.24"/><line class="cls-5" x1="150.43" y1="367.61" x2="150.93" y2="367.11"/><line class="cls-5" x1="152.05" y1="365.98" x2="152.13" y2="365.9"/><line class="cls-5" x1="153.18" y1="364.86" x2="158.76" y2="359.23"/><line class="cls-5" x1="159.88" y1="358.11" x2="160.01" y2="358.03"/><line class="cls-5" x1="150.43" y1="376.56" x2="155.43" y2="371.6"/><line class="cls-5" x1="156.55" y1="370.48" x2="156.63" y2="370.35"/><line class="cls-5" x1="157.67" y1="369.35" x2="160.26" y2="366.73"/><line class="cls-5" x1="150.43" y1="385.56" x2="152.05" y2="383.93"/><line class="cls-5" x1="153.18" y1="382.81" x2="153.26" y2="382.72"/><line class="cls-5" x1="154.3" y1="381.68" x2="159.88" y2="376.06"/><line class="cls-5" x1="150.93" y1="394.01" x2="156.55" y2="388.43"/><line class="cls-5" x1="157.67" y1="387.3" x2="157.76" y2="387.22"/><line class="cls-5" x1="158.76" y1="386.18" x2="160.26" y2="384.68"/><line class="cls-5" x1="150.43" y1="403.5" x2="153.18" y2="400.76"/><line class="cls-5" x1="154.3" y1="399.63" x2="154.38" y2="399.55"/><line class="cls-5" x1="155.43" y1="398.51" x2="160.26" y2="393.63"/><line class="cls-5" x1="150.93" y1="412" x2="151.01" y2="411.88"/><line class="cls-5" x1="152.05" y1="410.88" x2="157.67" y2="405.25"/><line class="cls-5" x1="158.76" y1="404.13" x2="158.88" y2="404.05"/><line class="cls-5" x1="159.88" y1="403" x2="160.26" y2="402.63"/><line class="cls-5" x1="150.43" y1="421.45" x2="154.3" y2="417.58"/><line class="cls-5" x1="155.43" y1="416.46" x2="155.51" y2="416.37"/><line class="cls-5" x1="156.55" y1="415.33" x2="160.26" y2="411.63"/><line class="cls-5" x1="150.43" y1="430.41" x2="150.93" y2="429.95"/><line class="cls-5" x1="152.05" y1="428.83" x2="152.13" y2="428.7"/><line class="cls-5" x1="153.18" y1="427.7" x2="158.76" y2="422.08"/><line class="cls-5" x1="159.88" y1="420.95" x2="160.01" y2="420.87"/><line class="cls-5" x1="150.43" y1="439.4" x2="155.43" y2="434.41"/><line class="cls-5" x1="156.55" y1="433.28" x2="156.63" y2="433.2"/><line class="cls-5" x1="157.67" y1="432.16" x2="160.26" y2="429.58"/><line class="cls-5" x1="150.43" y1="448.36" x2="152.05" y2="446.78"/><line class="cls-5" x1="153.18" y1="445.65" x2="153.26" y2="445.53"/><line class="cls-5" x1="154.3" y1="444.53" x2="159.88" y2="438.9"/><line class="cls-5" x1="150.93" y1="456.85" x2="156.55" y2="451.23"/><line class="cls-5" x1="157.67" y1="450.15" x2="157.76" y2="450.02"/><line class="cls-5" x1="158.76" y1="449.02" x2="160.26" y2="447.53"/><line class="cls-5" x1="150.43" y1="466.31" x2="153.18" y2="463.6"/><line class="cls-5" x1="154.3" y1="462.48" x2="154.38" y2="462.39"/><line class="cls-5" x1="155.43" y1="461.35" x2="160.26" y2="456.48"/><line class="cls-5" x1="150.93" y1="474.8" x2="151.01" y2="474.72"/><line class="cls-5" x1="152.05" y1="473.68" x2="157.67" y2="468.1"/><line class="cls-5" x1="158.76" y1="466.97" x2="158.88" y2="466.85"/><line class="cls-5" x1="159.88" y1="465.85" x2="160.26" y2="465.47"/><line class="cls-5" x1="150.43" y1="484.26" x2="154.3" y2="480.43"/><line class="cls-5" x1="155.43" y1="479.3" x2="155.51" y2="479.22"/><line class="cls-5" x1="156.55" y1="478.18" x2="160.26" y2="474.43"/><line class="cls-5" x1="150.43" y1="493.25" x2="150.93" y2="492.75"/><line class="cls-5" x1="152.05" y1="491.63" x2="152.13" y2="491.55"/><line class="cls-5" x1="153.18" y1="490.5" x2="158.76" y2="484.92"/><line class="cls-5" x1="159.88" y1="483.8" x2="160.01" y2="483.67"/><line class="cls-5" x1="150.43" y1="502.25" x2="155.43" y2="497.25"/><line class="cls-5" x1="156.55" y1="496.13" x2="156.63" y2="496.04"/><line class="cls-5" x1="157.67" y1="495" x2="160.26" y2="492.38"/><line class="cls-5" x1="150.43" y1="511.2" x2="152.05" y2="509.58"/><line class="cls-5" x1="153.18" y1="508.45" x2="153.26" y2="508.37"/><line class="cls-5" x1="154.3" y1="507.33" x2="159.88" y2="501.75"/><line class="cls-5" x1="158.84" y1="511.79" x2="160.26" y2="510.33"/><polyline class="cls-4" points="160.26 351.24 150.43 351.24 150.43 511.79 160.26 511.79 160.26 351.24"/><line class="cls-5" x1="408.18" y1="307.55" x2="408.18" y2="307.55"/><line class="cls-4" x1="408.18" y1="306.76" x2="408.18" y2="306.76"/><polyline class="cls-6" points="408.18 694.78 408.18 696.15 408.18 712.86"/><line class="cls-4" x1="408.18" y1="693.41" x2="408.18" y2="693.41"/><polyline class="cls-4" points="408.18 693.41 408.18 696.15 408.18 696.15 408.18 694.57 408.18 694.57"/><line class="cls-4" x1="248.8" y1="451.19" x2="281.86" y2="451.19"/><line class="cls-4" x1="248.8" y1="436.61" x2="248.8" y2="451.19"/><line class="cls-4" x1="281.86" y1="451.19" x2="281.86" y2="436.61"/><line class="cls-4" x1="248.8" y1="412.21" x2="248.8" y2="426.79"/><line class="cls-4" x1="281.86" y1="412.21" x2="248.8" y2="412.21"/><line class="cls-4" x1="281.86" y1="426.79" x2="281.86" y2="412.21"/><polyline class="cls-4" points="21.95 380.35 30.4 380.35 30.4 137.34 20.57 137.34"/><polyline class="cls-4" points="20.57 761.08 30.4 761.08 30.4 423.66 21.95 423.66"/><line class="cls-4" x1="396.98" y1="285.89" x2="396.98" y2="289.85"/><polyline class="cls-4" points="393.02 289.85 393.02 285.89 396.98 285.89 396.98 289.85"/><polyline class="cls-4" points="396.98 285.89 393.02 285.89 393.02 289.85"/><polyline class="cls-4" points="396.98 285.89 393.02 285.89 393.02 289.85"/><line class="cls-4" x1="239.76" y1="418.91" x2="239.76" y2="426.79"/><polyline class="cls-4" points="224.02 426.79 224.02 418.91 239.76 418.91 239.76 426.79"/><polyline class="cls-4" points="239.76 418.91 224.02 418.91 224.02 426.79"/><polyline class="cls-4" points="239.76 418.91 224.02 418.91 224.02 426.79"/><polyline class="cls-4" points="277.16 416.96 277.16 426.79 253.54 426.79 253.54 416.96 277.16 416.96"/><polyline class="cls-4" points="253.54 426.79 277.16 426.79 277.16 416.96 253.54 416.96 253.54 426.79"/><polyline class="cls-4" points="277.16 416.96 253.54 416.96 253.54 426.79"/><polyline class="cls-4" points="277.16 436.61 277.16 446.48 253.54 446.48 253.54 436.61 277.16 436.61"/><polyline class="cls-4" points="253.54 446.48 277.16 446.48 277.16 436.61 253.54 436.61 253.54 446.48"/><polyline class="cls-4" points="277.16 436.61 253.54 436.61 253.54 446.48"/><polyline class="cls-4" points="398.35 294.56 398.35 304.39 374.74 304.39 374.74 294.56 398.35 294.56"/><polyline class="cls-4" points="374.74 304.39 398.35 304.39 398.35 294.56 374.74 294.56 374.74 304.39"/><polyline class="cls-4" points="398.35 294.56 374.74 294.56 374.74 304.39"/><polyline class="cls-4" points="408.18 302.05 408.18 302.05 408.18 292.23 408.18 292.23"/><polyline class="cls-4" points="408.18 292.23 408.18 292.23 408.18 302.05"/><line class="cls-4" x1="408.18" y1="302.05" x2="408.18" y2="302.05"/><polyline class="cls-4" points="408.18 292.23 408.18 292.23 408.18 302.05"/><polyline class="cls-4" points="398.35 558.6 398.35 568.47 374.74 568.47 374.74 558.6 398.35 558.6"/><polyline class="cls-4" points="374.74 568.47 398.35 568.47 398.35 558.6 374.74 558.6 374.74 568.47"/><polyline class="cls-4" points="398.35 558.6 374.74 558.6 374.74 568.47"/><polyline class="cls-5" points="406.01 51.8 406.01 38.01 276.91 38.01"/><line class="cls-4" x1="276.91" y1="126.93" x2="276.91" y2="125.72"/><line class="cls-4" x1="276.91" y1="124.22" x2="276.91" y2="82.45"/><line class="cls-4" x1="276.91" y1="80.95" x2="276.91" y2="76.75"/><line class="cls-4" x1="19.57" y1="126.93" x2="19.57" y2="125.76"/><line class="cls-4" x1="19.57" y1="121.43" x2="19.57" y2="85.24"/><line class="cls-4" x1="19.57" y1="80.91" x2="19.57" y2="76.75"/><line class="cls-4" x1="28.78" y1="126.93" x2="33.98" y2="126.93"/><line class="cls-4" x1="43.44" y1="126.93" x2="143.31" y2="126.93"/><line class="cls-4" x1="152.76" y1="126.93" x2="157.92" y2="126.93"/><line class="cls-4" x1="167.38" y1="126.93" x2="267.45" y2="126.93"/><line class="cls-4" x1="19.57" y1="76.75" x2="276.91" y2="76.75"/><line class="cls-5" x1="19.57" y1="83.66" x2="19.57" y2="82.49"/><line class="cls-5" x1="275.37" y1="82.49" x2="275.37" y2="83.66"/><polyline class="cls-5" points="19.57 83.66 275.37 83.66 275.37 85.24 19.57 85.24 19.57 83.66"/><polyline class="cls-5" points="19.57 80.91 275.37 80.91 275.37 82.49 19.57 82.49 19.57 80.91"/><line class="cls-5" x1="19.57" y1="124.18" x2="19.57" y2="123.02"/><line class="cls-5" x1="275.37" y1="123.02" x2="275.37" y2="124.18"/><polyline class="cls-5" points="19.57 121.43 275.37 121.43 275.37 123.02 19.57 123.02 19.57 121.43"/><polyline class="cls-5" points="19.57 124.18 275.37 124.18 275.37 125.76 19.57 125.76 19.57 124.18"/><line class="cls-4" x1="408.18" y1="688.28" x2="408.18" y2="688.28"/><line class="cls-4" x1="408.18" y1="696.16" x2="408.18" y2="696.16"/><line class="cls-4" x1="408.18" y1="693.41" x2="408.18" y2="688.28"/><polyline class="cls-4" points="128.77 758.58 128.77 749.3 57.97 749.3 57.97 758.58"/><line class="cls-6" x1="62.01" y1="761.5" x2="103.74" y2="761.5"/><line class="cls-6" x1="103.74" y1="760.87" x2="62.01" y2="760.87"/><polyline class="cls-6" points="62.01 761.5 62.01 760.87 61.43 760.87 61.43 761.5 62.01 761.5"/><polyline class="cls-6" points="103.74 760.87 103.74 761.5 104.33 761.5 104.33 760.87 103.74 760.87"/><line class="cls-6" x1="108.45" y1="760.87" x2="122.9" y2="760.87"/><line class="cls-6" x1="122.9" y1="760.25" x2="108.45" y2="760.25"/><polyline class="cls-6" points="108.45 760.87 108.45 760.25 107.86 760.25 107.86 760.87 108.45 760.87"/><polyline class="cls-6" points="122.9 760.25 122.9 760.87 123.48 760.87 123.48 760.25 122.9 760.25"/><line class="cls-6" x1="107.86" y1="761.04" x2="107.86" y2="760.87"/><polyline class="cls-6" points="107.86 760.25 107.86 760.08 108.66 760.08 108.66 758.75 105.41 758.75 105.41 759.29 106.2 759.29 106.2 761.83 108.66 761.83 108.66 761.04 107.86 761.04"/><line class="cls-6" x1="123.48" y1="760.08" x2="123.48" y2="760.25"/><polyline class="cls-6" points="123.48 760.87 123.48 761.04 122.69 761.04 122.69 761.83 125.19 761.83 125.19 759.29 125.94 759.29 125.94 758.75 122.69 758.75 122.69 760.08 123.48 760.08"/><line class="cls-6" x1="122.69" y1="761.04" x2="108.66" y2="761.04"/><line class="cls-6" x1="108.66" y1="760.08" x2="122.69" y2="760.08"/><line class="cls-6" x1="122.69" y1="758.75" x2="108.66" y2="758.75"/><line class="cls-6" x1="108.66" y1="761.83" x2="122.69" y2="761.83"/><polyline class="cls-6" points="58.93 762.46 62.22 762.46 62.22 761.66 61.43 761.66 61.43 761.5"/><polyline class="cls-6" points="61.43 760.87 61.43 760.71 62.22 760.71 62.22 759.38 58.93 759.38 58.93 762.46"/><polyline class="cls-6" points="127.81 762.46 127.81 759.38 125.31 759.38 125.31 761.91 124.52 761.91 124.52 762.46 127.81 762.46"/><polyline class="cls-6" points="103.53 759.38 103.53 760.71 104.33 760.71 104.33 760.87"/><polyline class="cls-6" points="104.33 761.5 104.33 761.66 103.53 761.66 103.53 762.46 106.82 762.46 106.82 761.91 106.03 761.91 106.03 759.38 103.53 759.38"/><line class="cls-6" x1="106.82" y1="762.46" x2="124.52" y2="762.46"/><line class="cls-6" x1="62.22" y1="759.37" x2="103.53" y2="759.37"/><line class="cls-6" x1="125.31" y1="759.37" x2="125.19" y2="759.37"/><line class="cls-6" x1="106.2" y1="759.37" x2="106.03" y2="759.37"/><line class="cls-6" x1="124.52" y1="761.91" x2="106.82" y2="761.91"/><line class="cls-6" x1="62.22" y1="761.67" x2="103.53" y2="761.67"/><line class="cls-6" x1="103.53" y1="762.46" x2="62.22" y2="762.46"/><line class="cls-6" x1="103.53" y1="760.71" x2="62.22" y2="760.71"/><polyline class="cls-4" points="376.69 758.58 376.69 749.3 305.85 749.3 305.85 758.58"/><line class="cls-6" x1="309.93" y1="761.5" x2="351.66" y2="761.5"/><line class="cls-6" x1="351.66" y1="760.87" x2="309.93" y2="760.87"/><polyline class="cls-6" points="309.93 761.5 309.93 760.87 309.35 760.87 309.35 761.5 309.93 761.5"/><polyline class="cls-6" points="351.66 760.87 351.66 761.5 352.25 761.5 352.25 760.87 351.66 760.87"/><line class="cls-6" x1="356.37" y1="760.87" x2="370.82" y2="760.87"/><line class="cls-6" x1="370.82" y1="760.25" x2="356.37" y2="760.25"/><polyline class="cls-6" points="356.37 760.87 356.37 760.25 355.79 760.25 355.79 760.87 356.37 760.87"/><polyline class="cls-6" points="370.82 760.25 370.82 760.87 371.4 760.87 371.4 760.25 370.82 760.25"/><line class="cls-6" x1="355.79" y1="761.04" x2="355.79" y2="760.87"/><polyline class="cls-6" points="355.79 760.25 355.79 760.08 356.58 760.08 356.58 758.75 353.33 758.75 353.33 759.29 354.08 759.29 354.08 761.83 356.58 761.83 356.58 761.04 355.79 761.04"/><line class="cls-6" x1="371.4" y1="760.08" x2="371.4" y2="760.25"/><polyline class="cls-6" points="371.4 760.87 371.4 761.04 370.61 761.04 370.61 761.83 373.07 761.83 373.07 759.29 373.86 759.29 373.86 758.75 370.61 758.75 370.61 760.08 371.4 760.08"/><line class="cls-6" x1="370.61" y1="761.04" x2="356.58" y2="761.04"/><line class="cls-6" x1="356.58" y1="760.08" x2="370.61" y2="760.08"/><line class="cls-6" x1="370.61" y1="758.75" x2="356.58" y2="758.75"/><line class="cls-6" x1="356.58" y1="761.83" x2="370.61" y2="761.83"/><polyline class="cls-6" points="306.85 762.46 310.14 762.46 310.14 761.66 309.35 761.66 309.35 761.5"/><polyline class="cls-6" points="309.35 760.87 309.35 760.71 310.14 760.71 310.14 759.38 306.85 759.38 306.85 762.46"/><polyline class="cls-6" points="375.74 762.46 375.74 759.38 373.24 759.38 373.24 761.91 372.44 761.91 372.44 762.46 375.74 762.46"/><polyline class="cls-6" points="351.45 759.38 351.45 760.71 352.25 760.71 352.25 760.87"/><polyline class="cls-6" points="352.25 761.5 352.25 761.66 351.45 761.66 351.45 762.46 354.75 762.46 354.75 761.91 353.95 761.91 353.95 759.38 351.45 759.38"/><line class="cls-6" x1="354.75" y1="762.46" x2="372.45" y2="762.46"/><line class="cls-6" x1="310.14" y1="759.37" x2="351.46" y2="759.37"/><line class="cls-6" x1="373.24" y1="759.37" x2="373.07" y2="759.37"/><line class="cls-6" x1="354.08" y1="759.37" x2="353.95" y2="759.37"/><line class="cls-6" x1="372.45" y1="761.91" x2="354.75" y2="761.91"/><line class="cls-6" x1="310.14" y1="761.67" x2="351.46" y2="761.67"/><line class="cls-6" x1="351.46" y1="762.46" x2="310.14" y2="762.46"/><line class="cls-6" x1="351.46" y1="760.71" x2="310.14" y2="760.71"/><polyline class="cls-4" points="252.75 758.58 252.75 749.3 181.91 749.3 181.91 758.58"/><line class="cls-6" x1="207.15" y1="761.5" x2="248.55" y2="761.5"/><line class="cls-6" x1="248.55" y1="760.87" x2="207.15" y2="760.87"/><polyline class="cls-6" points="248.55 760.87 248.55 761.5 249.13 761.5 249.13 760.87 248.55 760.87"/><polyline class="cls-6" points="207.11 761.5 207.11 760.87 206.53 760.87 206.53 761.5 207.11 761.5"/><line class="cls-6" x1="187.83" y1="760.87" x2="202.24" y2="760.87"/><line class="cls-6" x1="202.24" y1="760.25" x2="187.83" y2="760.25"/><polyline class="cls-6" points="187.83 760.87 187.83 760.25 187.24 760.25 187.24 760.87 187.83 760.87"/><polyline class="cls-6" points="202.24 760.25 202.24 760.87 202.82 760.87 202.82 760.25 202.24 760.25"/><line class="cls-6" x1="187.24" y1="761.04" x2="187.24" y2="760.87"/><polyline class="cls-6" points="187.24 760.25 187.24 760.08 188.03 760.08 188.03 758.75 184.74 758.75 184.74 759.29 185.53 759.29 185.53 761.83 188.03 761.83 188.03 761.04 187.24 761.04"/><line class="cls-6" x1="202.82" y1="760.08" x2="202.82" y2="760.25"/><polyline class="cls-6" points="202.82 760.87 202.82 761.04 202.03 761.04 202.03 761.83 204.53 761.83 204.53 759.29 205.32 759.29 205.32 758.75 202.03 758.75 202.03 760.08 202.82 760.08"/><line class="cls-6" x1="202.03" y1="761.04" x2="188.03" y2="761.04"/><line class="cls-6" x1="188.03" y1="760.08" x2="202.03" y2="760.08"/><line class="cls-6" x1="202.03" y1="758.75" x2="188.03" y2="758.75"/><line class="cls-6" x1="188.03" y1="761.83" x2="202.03" y2="761.83"/><line class="cls-6" x1="251.75" y1="762.46" x2="252.75" y2="762.46"/><polyline class="cls-6" points="252.75 759.38 251.75 759.38 251.75 762.46"/><polyline class="cls-6" points="181.91 762.46 182.91 762.46 182.91 759.38 181.91 759.38"/><polyline class="cls-6" points="185.37 759.38 182.91 759.38 182.91 762.46 186.16 762.46 186.16 761.91 185.37 761.91 185.37 759.38"/><polyline class="cls-6" points="251.75 759.38 248.5 759.38 248.5 760.71 249.3 760.71 249.3 761.66 248.5 761.66 248.5 762.46 251.75 762.46 251.75 759.38"/><polyline class="cls-6" points="248.5 759.38 207.15 759.38 204.69 759.38 204.69 761.91 203.9 761.91 203.9 762.46 207.15 762.46 207.15 759.38"/><line class="cls-6" x1="204.69" y1="759.37" x2="204.53" y2="759.37"/><line class="cls-6" x1="185.54" y1="759.37" x2="185.37" y2="759.37"/><line class="cls-6" x1="248.51" y1="760.71" x2="207.15" y2="760.71"/><line class="cls-6" x1="207.15" y1="761.67" x2="248.51" y2="761.67"/><line class="cls-6" x1="248.51" y1="762.46" x2="207.15" y2="762.46"/><line class="cls-6" x1="186.16" y1="762.46" x2="203.9" y2="762.46"/><line class="cls-6" x1="203.9" y1="761.91" x2="186.16" y2="761.91"/><line class="cls-4" x1="408.18" y1="767.37" x2="398.35" y2="767.37"/><line class="cls-5" x1="57.97" y1="131.05" x2="128.77" y2="131.05"/><line class="cls-5" x1="181.91" y1="131.05" x2="252.75" y2="131.05"/><line class="cls-5" x1="14.49" y1="767.37" x2="14.49" y2="767.16"/><polyline class="cls-4" points="128.77 758.25 128.77 767.16 181.91 767.16"/><polyline class="cls-4" points="14.49 767.16 57.97 767.16 57.97 755.22"/><line class="cls-4" x1="150.43" y1="761.08" x2="128.77" y2="761.08"/><line class="cls-4" x1="57.97" y1="761.08" x2="30.4" y2="761.08"/><line class="cls-5" x1="128.77" y1="767.16" x2="57.97" y2="767.16"/><line class="cls-4" x1="376.69" y1="760.72" x2="376.69" y2="767.16"/><polyline class="cls-4" points="252.75 759.83 252.75 767.16 305.85 767.16 305.85 759.83"/><line class="cls-4" x1="181.91" y1="767.16" x2="181.91" y2="759.12"/><line class="cls-4" x1="398.35" y1="761.08" x2="376.69" y2="761.08"/><line class="cls-4" x1="305.85" y1="761.08" x2="252.75" y2="761.08"/><line class="cls-4" x1="181.91" y1="761.08" x2="160.26" y2="761.08"/><line class="cls-5" x1="252.75" y1="767.16" x2="181.91" y2="767.16"/><line class="cls-5" x1="376.69" y1="767.16" x2="305.85" y2="767.16"/><line class="cls-4" x1="408.18" y1="130.84" x2="408.18" y2="130.84"/><polyline class="cls-4" points="408.18 131.26 408.18 131.26 408.18 131.47"/><polyline class="cls-4" points="181.91 140.18 181.91 130.84 167.38 130.84"/><polyline class="cls-4" points="267.45 130.84 252.75 130.84 252.75 140.31"/><polyline class="cls-4" points="305.85 140.31 305.85 130.84 291.53 130.84"/><polyline class="cls-4" points="391.39 130.84 376.69 130.84 376.69 140.95"/><polyline class="cls-4" points="391.39 131.47 391.39 131.26 376.69 131.26"/><polyline class="cls-4" points="267.45 131.47 267.45 131.26 252.75 131.26"/><polyline class="cls-4" points="181.91 131.26 167.38 131.26 167.38 131.47"/><polyline class="cls-4" points="305.85 131.26 291.53 131.26 291.53 131.47"/><polyline class="cls-4" points="57.97 138.38 57.97 130.84 43.44 130.84"/><polyline class="cls-4" points="143.31 130.84 128.77 130.84 128.77 140.84"/><polyline class="cls-4" points="143.31 131.47 143.31 131.26 128.77 131.26"/><polyline class="cls-4" points="57.97 131.26 43.44 131.26 43.44 131.47"/><line class="cls-5" x1="408.18" y1="467.93" x2="408.18" y2="340.79"/><polyline class="cls-4" points="398.35 304.39 398.35 395.09 408.18 395.09 408.18 302.05"/><line class="cls-4" x1="408.18" y1="137.34" x2="398.35" y2="137.34"/><polyline class="cls-4" points="57.97 139.42 57.97 148.75 128.77 148.75 128.77 139.42"/><line class="cls-6" x1="125.23" y1="136.55" x2="61.51" y2="136.55"/><line class="cls-6" x1="61.51" y1="137.17" x2="125.23" y2="137.17"/><polyline class="cls-6" points="61.51 137.18 61.51 136.55 60.93 136.55 60.93 137.18 61.51 137.18"/><polyline class="cls-6" points="125.23 136.55 125.23 137.18 125.86 137.18 125.86 136.55 125.23 136.55"/><polyline class="cls-4" points="181.91 139.42 181.91 148.75 252.75 148.75 252.75 139.42"/><line class="cls-6" x1="249.21" y1="136.55" x2="185.45" y2="136.55"/><line class="cls-6" x1="185.45" y1="137.17" x2="249.21" y2="137.17"/><polyline class="cls-6" points="185.45 137.18 185.45 136.55 184.87 136.55 184.87 137.18 185.45 137.18"/><polyline class="cls-6" points="249.21 136.55 249.21 137.18 249.8 137.18 249.8 136.55 249.21 136.55"/><polyline class="cls-6" points="333.76 124.47 309.23 138.63 308.43 137.3 332.96 123.1 333.76 124.47"/><polyline class="cls-4" points="306.85 137.3 308.43 137.3 308.43 138.84 308.81 138.84 308.81 140.05 306.85 140.05 306.85 137.3"/><polyline class="cls-6" points="341.75 118.6 341 119.93 373.36 138.63 374.15 137.3 341.75 118.6"/><polyline class="cls-4" points="375.74 140.05 375.74 137.3 374.15 137.3 374.15 138.84 373.74 138.84 373.74 140.05 375.74 140.05"/><line class="cls-5" x1="408.18" y1="335.29" x2="408.18" y2="335.29"/><line class="cls-5" x1="408.18" y1="341.58" x2="408.18" y2="341.58"/><line class="cls-4" x1="408.18" y1="336.08" x2="408.18" y2="336.08"/><line class="cls-4" x1="408.18" y1="340.79" x2="408.18" y2="340.79"/><line class="cls-4" x1="408.18" y1="692.2" x2="408.18" y2="477.76"/><line class="cls-4" x1="398.35" y1="467.93" x2="398.35" y2="558.6"/><line class="cls-4" x1="398.35" y1="568.47" x2="398.35" y2="761.08"/><line class="cls-4" x1="408.18" y1="292.23" x2="408.18" y2="137.34"/><line class="cls-4" x1="398.35" y1="137.34" x2="398.35" y2="294.56"/><line class="cls-6" x1="144.35" y1="768.95" x2="144.35" y2="767.37"/><line class="cls-6" x1="143.56" y1="768.95" x2="143.56" y2="767.37"/><line class="cls-6" x1="166.38" y1="768.95" x2="166.38" y2="767.37"/><line class="cls-6" x1="167.17" y1="768.95" x2="167.17" y2="767.37"/><polyline class="cls-6" points="171.08 784.7 139.6 784.7 139.6 768.95 171.08 768.95 171.08 784.7"/><line class="cls-6" x1="138.22" y1="767.37" x2="172.46" y2="767.37"/><polyline class="cls-6" points="155.38 789.44 153.34 789.44 151.26 789.44 149.18 789.44 147.1 789.44 145.01 789.44 142.93 789.44 140.85 789.44 138.77 789.44 135.81 789.44 135.81 789.32 138.77 789.32 140.85 789.32 142.93 789.32 145.01 789.32 147.1 789.32 149.18 789.32 151.26 789.32 153.34 789.32 155.38 789.32 155.38 789.44"/><line class="cls-6" x1="153.34" y1="789.32" x2="153.34" y2="789.44"/><line class="cls-6" x1="151.26" y1="789.32" x2="151.26" y2="789.44"/><line class="cls-6" x1="149.18" y1="789.32" x2="149.18" y2="789.44"/><line class="cls-6" x1="147.1" y1="789.32" x2="147.1" y2="789.44"/><line class="cls-6" x1="145.01" y1="789.32" x2="145.01" y2="789.44"/><line class="cls-6" x1="142.93" y1="789.32" x2="142.93" y2="789.44"/><line class="cls-6" x1="140.85" y1="789.32" x2="140.85" y2="789.44"/><line class="cls-6" x1="138.77" y1="789.32" x2="138.77" y2="789.44"/><polyline class="cls-6" points="175.04 789.32 155.38 789.32 155.38 789.24 175.04 789.24 175.04 789.32"/><polyline class="cls-6" points="138.22 767.37 135.69 767.37 135.69 789.24 175.04 789.24 175.04 767.37 172.46 767.37 172.46 786.65 138.22 786.65 138.22 767.37"/><line class="cls-6" x1="172.46" y1="786.44" x2="138.22" y2="786.44"/><polyline class="cls-6" points="284.24 206.72 304.48 206.72 304.48 205.72 284.24 205.72 284.24 206.72"/><polyline class="cls-6" points="375.32 206.72 395.6 206.72 395.6 205.72 375.32 205.72 375.32 206.72"/><line class="cls-6" x1="304.48" y1="208.18" x2="284.24" y2="208.18"/><line class="cls-6" x1="284.24" y1="204.27" x2="304.48" y2="204.27"/><line class="cls-6" x1="395.6" y1="208.18" x2="375.32" y2="208.18"/><line class="cls-6" x1="375.32" y1="204.27" x2="395.6" y2="204.27"/><polyline class="cls-6" points="304.48 208.18 306.48 208.18 306.48 204.27 304.48 204.27 304.48 208.18"/><polyline class="cls-6" points="373.36 208.18 375.32 208.18 375.32 204.27 373.36 204.27 373.36 208.18"/><polyline class="cls-6" points="282.74 204.27 282.74 178.07 281.78 178.07 281.78 204.27 282.74 204.27"/><line class="cls-6" x1="284.24" y1="178.07" x2="284.24" y2="204.27"/><line class="cls-6" x1="280.28" y1="204.27" x2="280.28" y2="178.07"/><polyline class="cls-6" points="282.74 176.12 282.74 149.96 281.78 149.96 281.78 176.12 282.74 176.12"/><line class="cls-6" x1="284.24" y1="149.96" x2="284.24" y2="176.11"/><line class="cls-6" x1="280.28" y1="176.11" x2="280.28" y2="149.96"/><polyline class="cls-6" points="284.24 178.07 284.24 176.12 280.28 176.12 280.28 178.07 284.24 178.07"/><line class="cls-6" x1="373.36" y1="205.23" x2="348.33" y2="180.2"/><line class="cls-6" x1="306.48" y1="205.35" x2="324.55" y2="187.28"/><polyline class="cls-6" points="332.84 205.43 309.6 205.43 309.6 205.56 332.84 205.56 332.84 205.43"/><polyline class="cls-6" points="370.2 205.43 339.13 205.43 339.13 205.56 370.2 205.56 370.2 205.43"/><polyline class="cls-6" points="335.96 205.97 339.13 205.97 339.13 204.43 335.96 204.43 335.96 205.97"/><line class="cls-6" x1="370.2" y1="205.97" x2="373.36" y2="205.97"/><polyline class="cls-6" points="373.36 204.43 370.2 204.43 370.2 205.97"/><line class="cls-6" x1="370.2" y1="205.97" x2="339.13" y2="205.97"/><polyline class="cls-6" points="306.48 205.97 309.6 205.97 309.6 204.43 306.48 204.43"/><polyline class="cls-6" points="332.84 205.97 335.96 205.97 335.96 204.43 332.84 204.43 332.84 205.97"/><line class="cls-6" x1="332.84" y1="205.97" x2="309.6" y2="205.97"/><polyline class="cls-6" points="284.24 204.27 280.28 204.27 280.28 208.18 284.24 208.18 284.24 204.27"/><polyline class="cls-6" points="284.24 149.96 284.24 148 280.28 148 280.28 149.96 284.24 149.96"/><polyline class="cls-6" points="395.6 208.18 397.56 208.18 397.56 204.27 395.6 204.27 395.6 208.18"/><line class="cls-4" x1="376.69" y1="767.16" x2="408.18" y2="767.16"/><line class="cls-4" x1="408.18" y1="761.08" x2="398.35" y2="761.08"/><polyline class="cls-4" points="28.78 130.84 28.78 126.93 19.32 126.93 19.32 130.84"/><line class="cls-4" x1="28.78" y1="131.47" x2="28.78" y2="131.26"/><line class="cls-4" x1="19.74" y1="127.3" x2="19.74" y2="131.47"/><polyline class="cls-4" points="28.4 131.47 28.4 127.31 19.74 127.31"/><polyline class="cls-5" points="43.44 130.84 43.44 126.93 33.98 126.93 33.98 130.84"/><line class="cls-4" x1="33.98" y1="131.26" x2="33.98" y2="131.47"/><line class="cls-4" x1="34.36" y1="127.3" x2="34.36" y2="131.47"/><polyline class="cls-4" points="43.02 131.47 43.02 127.31 34.36 127.31"/><polyline class="cls-5" points="400.85 130.84 400.85 126.93 391.39 126.93 391.39 130.84"/><line class="cls-4" x1="400.85" y1="131.47" x2="400.85" y2="131.26"/><line class="cls-4" x1="391.81" y1="127.3" x2="391.81" y2="131.47"/><polyline class="cls-4" points="400.47 131.47 400.47 127.31 391.81 127.31"/><polyline class="cls-5" points="408.18 130.84 408.18 126.93 406.05 126.93 406.05 130.84"/><line class="cls-4" x1="406.05" y1="131.26" x2="406.05" y2="131.47"/><line class="cls-4" x1="406.43" y1="127.3" x2="406.43" y2="131.47"/><polyline class="cls-4" points="408.18 149.87 408.18 127.31 406.43 127.31"/><polyline class="cls-5" points="276.91 130.84 276.91 126.93 267.45 126.93 267.45 130.84"/><line class="cls-4" x1="276.91" y1="131.47" x2="276.91" y2="131.26"/><line class="cls-4" x1="267.83" y1="127.3" x2="267.83" y2="131.47"/><polyline class="cls-4" points="276.49 131.47 276.49 127.31 267.83 127.31"/><polyline class="cls-5" points="291.53 130.84 291.53 126.93 282.07 126.93 282.07 130.84"/><line class="cls-4" x1="282.07" y1="131.26" x2="282.07" y2="131.47"/><line class="cls-4" x1="282.49" y1="127.3" x2="282.49" y2="131.47"/><polyline class="cls-4" points="291.15 131.47 291.15 127.31 282.49 127.31"/><polyline class="cls-5" points="152.76 130.84 152.76 126.93 143.31 126.93 143.31 130.84"/><line class="cls-4" x1="152.76" y1="131.47" x2="152.76" y2="131.26"/><line class="cls-4" x1="143.68" y1="127.3" x2="143.68" y2="131.47"/><polyline class="cls-4" points="152.34 131.47 152.34 127.31 143.68 127.31"/><polyline class="cls-5" points="167.38 130.84 167.38 126.93 157.92 126.93 157.92 130.84"/><line class="cls-4" x1="157.92" y1="131.26" x2="157.92" y2="131.47"/><line class="cls-4" x1="158.34" y1="127.3" x2="158.34" y2="131.47"/><polyline class="cls-4" points="167 131.47 167 127.31 158.34 127.31"/><line class="cls-5" x1="33.98" y1="130.84" x2="28.78" y2="130.84"/><line class="cls-4" x1="33.98" y1="131.26" x2="28.78" y2="131.26"/><line class="cls-5" x1="406.05" y1="130.84" x2="400.85" y2="130.84"/><line class="cls-4" x1="406.05" y1="131.26" x2="400.85" y2="131.26"/><line class="cls-5" x1="282.07" y1="130.84" x2="276.91" y2="130.84"/><line class="cls-4" x1="282.07" y1="131.26" x2="276.91" y2="131.26"/><line class="cls-5" x1="157.92" y1="130.84" x2="152.76" y2="130.84"/><line class="cls-4" x1="157.92" y1="131.26" x2="152.76" y2="131.26"/><polyline class="cls-6" points="1.46 387.22 20.57 420.29 19.2 421.08 0.13 388.01 1.46 387.22"/><polyline class="cls-4" points="19.2 422.66 19.2 421.08 20.78 421.08 20.78 420.7 21.95 420.7 21.95 422.66 19.2 422.66"/><polyline class="cls-4" points="21.95 381.35 19.2 381.35 19.2 382.93 20.78 382.93 20.78 383.31 21.95 383.31 21.95 381.35"/><text class="cls-7" transform="translate(205.95 597.88)">№1</text><text class="cls-7" transform="translate(191 629.41)">13<tspan class="cls-8" x="20.45" y="0">9</tspan><tspan x="33.31" y="0">.50</tspan></text><text class="cls-7" transform="translate(200.3 564.04)">ПСН</text><polyline class="cls-6" points="183.27 637.29 183.27 541.36 263.27 541.36 263.27 637.29"/><line class="cls-6" x1="183.27" y1="573.4" x2="263.27" y2="573.4"/><line class="cls-6" x1="183.27" y1="637.29" x2="263.27" y2="637.29"/><line class="cls-6" x1="183.27" y1="605.44" x2="263.27" y2="605.44"/><text class="cls-1" transform="translate(197.93 823.77)">двор</text><line class="cls-3" x1="187.17" y1="826.59" x2="187.17" y2="817.79"/><polyline class="cls-3" points="183.67 823.09 187.17 826.59 190.67 823.09"/><text class="cls-9" transform="translate(324.36 171.88)">4.50</text></svg>